<svg width="180" height="210" viewBox="0 0 180 210" fill="none" xmlns="http://www.w3.org/2000/svg">
<g opacity="0.5">
<path fill-rule="evenodd" clip-rule="evenodd" d="M74.25 77.1667C74.25 69.4807 81.3015 63.25 90 63.25C98.6985 63.25 105.75 69.4807 105.75 77.1667V132.833C105.75 140.519 98.6985 146.75 90 146.75C81.3015 146.75 74.25 140.519 74.25 132.833V77.1667ZM102.6 77.1667V132.833C102.6 138.982 96.9588 143.967 90 143.967C83.0412 143.967 77.4 138.982 77.4 132.833V77.1667C77.4 71.0179 83.0412 66.0333 90 66.0333C96.9588 66.0333 102.6 71.0179 102.6 77.1667Z" fill="black" fill-opacity="0.72"/>
<path fill-rule="evenodd" clip-rule="evenodd" d="M90 54.9C76.0824 54.9 64.8 64.8691 64.8 77.1667V132.833C64.8 145.131 76.0824 155.1 90 155.1C103.918 155.1 115.2 145.131 115.2 132.833V77.1667C115.2 64.8691 103.918 54.9 90 54.9ZM112.05 132.833V77.1667C112.05 66.4063 102.178 57.6833 90 57.6833C77.8221 57.6833 67.95 66.4063 67.95 77.1667V132.833C67.95 143.594 77.8221 152.317 90 152.317C102.178 152.317 112.05 143.594 112.05 132.833Z" fill="black" fill-opacity="0.72"/>
<path fill-rule="evenodd" clip-rule="evenodd" d="M55.35 77.1667C55.35 60.2576 70.8633 46.55 90 46.55C109.137 46.55 124.65 60.2576 124.65 77.1667V132.833C124.65 149.742 109.137 163.45 90 163.45C70.8633 163.45 55.35 149.742 55.35 132.833V77.1667ZM121.5 77.1667V132.833C121.5 148.205 107.397 160.667 90 160.667C72.603 160.667 58.5 148.205 58.5 132.833V77.1667C58.5 61.7947 72.603 49.3333 90 49.3333C107.397 49.3333 121.5 61.7947 121.5 77.1667Z" fill="black" fill-opacity="0.72"/>
<path fill-rule="evenodd" clip-rule="evenodd" d="M90 38.2C65.6442 38.2 45.9 55.646 45.9 77.1667V132.833C45.9 154.354 65.6442 171.8 90 171.8C114.356 171.8 134.1 154.354 134.1 132.833V77.1667C134.1 55.646 114.356 38.2 90 38.2ZM130.95 132.833V77.1667C130.95 57.1832 112.616 40.9833 90 40.9833C67.3839 40.9833 49.05 57.1832 49.05 77.1667V132.833C49.05 152.817 67.3839 169.017 90 169.017C112.616 169.017 130.95 152.817 130.95 132.833Z" fill="black" fill-opacity="0.72"/>
<path fill-rule="evenodd" clip-rule="evenodd" d="M36.45 77.1667C36.45 51.0344 60.4252 29.85 90 29.85C119.575 29.85 143.55 51.0344 143.55 77.1667V132.833C143.55 158.966 119.575 180.15 90 180.15C60.4252 180.15 36.45 158.966 36.45 132.833V77.1667ZM140.4 77.1667V132.833C140.4 157.428 117.835 177.367 90 177.367C62.1649 177.367 39.6 157.428 39.6 132.833V77.1667C39.6 52.5716 62.1649 32.6333 90 32.6333C117.835 32.6333 140.4 52.5716 140.4 77.1667Z" fill="black" fill-opacity="0.72"/>
<path fill-rule="evenodd" clip-rule="evenodd" d="M27 77.1667C27 46.4228 55.2061 21.5 90 21.5C124.794 21.5 153 46.4228 153 77.1667V132.833C153 163.577 124.794 188.5 90 188.5C55.2061 188.5 27 163.577 27 132.833V77.1667ZM149.85 77.1667V132.833C149.85 162.04 123.054 185.717 90 185.717C56.9458 185.717 30.15 162.04 30.15 132.833V77.1667C30.15 47.96 56.9458 24.2833 90 24.2833C123.054 24.2833 149.85 47.96 149.85 77.1667Z" fill="black" fill-opacity="0.72"/>
</g>
</svg>
