<svg width="249" height="215" viewBox="0 0 249 215" fill="none" xmlns="http://www.w3.org/2000/svg">
<path opacity="0.5" d="M205.5 80.5V214H46.5002V80.5C46.5002 36.5934 82.0936 1 126 1C169.907 1 205.5 36.5934 205.5 80.5Z" fill="black" fill-opacity="0.72" stroke="url(#paint0_linear_256_401)"/>
<g opacity="0.5">
<path d="M222 114.641V200.5H30.0002V147.946C22.8637 147.532 16.8141 146.742 12.0878 145.574C8.69101 144.735 5.94819 143.693 3.97175 142.436C1.99645 141.18 0.729809 139.669 0.414324 137.88C0.117159 136.194 0.697848 134.484 1.95856 132.785C3.21728 131.089 5.18481 129.359 7.76202 127.6C12.8626 124.117 20.4559 120.449 30.0002 116.66V96.5C30.0002 43.4807 72.9808 0.5 126 0.5C174.961 0.5 215.362 37.1527 221.259 84.5164C229.393 85.0728 235.907 86.0595 240.525 87.5717C245.14 89.0831 248.069 91.1895 248.586 94.1204C248.901 95.9096 248.228 97.7624 246.801 99.6187C245.374 101.476 243.153 103.393 240.248 105.343C235.758 108.358 229.573 111.494 222 114.641ZM221 115.054V199.5H31.0002V148.002C33.8353 148.15 36.8355 148.241 39.9866 148.274C63.1303 148.519 94.5174 145.657 128.668 139.635C162.818 133.614 193.291 125.568 214.955 117.423C217.054 116.634 219.07 115.844 221 115.054ZM221.38 85.5271C229.398 86.0839 235.749 87.0601 240.214 88.522C244.8 90.0238 247.191 91.9684 247.601 94.294C247.849 95.7002 247.343 97.272 246.008 99.0094C244.674 100.746 242.552 102.592 239.691 104.513C235.347 107.429 229.36 110.48 222 113.558V96.5C222 92.7894 221.79 89.128 221.38 85.5271ZM30.0002 117.737C20.6524 121.464 13.2698 125.05 8.32588 128.425C5.79273 130.155 3.92649 131.811 2.76161 133.381C1.59872 134.948 1.16598 136.384 1.39913 137.706C1.64708 139.112 2.65974 140.416 4.50848 141.592C6.35608 142.768 8.98204 143.777 12.3277 144.603C16.966 145.749 22.9309 146.532 30.0002 146.945V117.737ZM31.0002 147V96.5C31.0002 44.033 73.5331 1.5 126 1.5C178.467 1.5 221 44.0329 221 96.5V113.973C218.967 114.81 216.832 115.649 214.603 116.487C193.013 124.605 162.603 132.636 128.494 138.651C94.3855 144.665 63.0624 147.518 39.9972 147.275C36.8366 147.241 33.8331 147.15 31.0002 147Z" fill="black" fill-opacity="0.72"/>
<path d="M222 114.641V200.5H30.0002V147.946C22.8637 147.532 16.8141 146.742 12.0878 145.574C8.69101 144.735 5.94819 143.693 3.97175 142.436C1.99645 141.18 0.729809 139.669 0.414324 137.88C0.117159 136.194 0.697848 134.484 1.95856 132.785C3.21728 131.089 5.18481 129.359 7.76202 127.6C12.8626 124.117 20.4559 120.449 30.0002 116.66V96.5C30.0002 43.4807 72.9808 0.5 126 0.5C174.961 0.5 215.362 37.1527 221.259 84.5164C229.393 85.0728 235.907 86.0595 240.525 87.5717C245.14 89.0831 248.069 91.1895 248.586 94.1204C248.901 95.9096 248.228 97.7624 246.801 99.6187C245.374 101.476 243.153 103.393 240.248 105.343C235.758 108.358 229.573 111.494 222 114.641ZM221 115.054V199.5H31.0002V148.002C33.8353 148.15 36.8355 148.241 39.9866 148.274C63.1303 148.519 94.5174 145.657 128.668 139.635C162.818 133.614 193.291 125.568 214.955 117.423C217.054 116.634 219.07 115.844 221 115.054ZM221.38 85.5271C229.398 86.0839 235.749 87.0601 240.214 88.522C244.8 90.0238 247.191 91.9684 247.601 94.294C247.849 95.7002 247.343 97.272 246.008 99.0094C244.674 100.746 242.552 102.592 239.691 104.513C235.347 107.429 229.36 110.48 222 113.558V96.5C222 92.7894 221.79 89.128 221.38 85.5271ZM30.0002 117.737C20.6524 121.464 13.2698 125.05 8.32588 128.425C5.79273 130.155 3.92649 131.811 2.76161 133.381C1.59872 134.948 1.16598 136.384 1.39913 137.706C1.64708 139.112 2.65974 140.416 4.50848 141.592C6.35608 142.768 8.98204 143.777 12.3277 144.603C16.966 145.749 22.9309 146.532 30.0002 146.945V117.737ZM31.0002 147V96.5C31.0002 44.033 73.5331 1.5 126 1.5C178.467 1.5 221 44.0329 221 96.5V113.973C218.967 114.81 216.832 115.649 214.603 116.487C193.013 124.605 162.603 132.636 128.494 138.651C94.3855 144.665 63.0624 147.518 39.9972 147.275C36.8366 147.241 33.8331 147.15 31.0002 147Z" stroke="url(#paint1_linear_256_401)"/>
</g>
<path opacity="0.5" d="M126 165.801C125.933 165.363 125.858 164.891 125.775 164.389C125.261 161.28 124.441 156.999 123.217 152.312C120.775 142.965 116.697 131.901 110.148 125.352C103.599 118.803 92.5348 114.725 83.1883 112.283C78.5015 111.059 74.2205 110.239 71.1113 109.725C70.609 109.642 70.1371 109.567 69.6991 109.5C70.1371 109.433 70.609 109.358 71.1113 109.275C74.2205 108.761 78.5015 107.941 83.1883 106.717C92.5348 104.275 103.599 100.197 110.148 93.6481C116.697 87.099 120.775 76.0346 123.217 66.6881C124.441 62.0012 125.261 57.7202 125.775 54.611C125.858 54.1087 125.933 53.6369 126 53.1988C126.068 53.6369 126.143 54.1087 126.226 54.611C126.739 57.7202 127.559 62.0012 128.784 66.6881C131.226 76.0346 135.303 87.099 141.852 93.6481C148.401 100.197 159.466 104.275 168.812 106.717C173.499 107.941 177.78 108.761 180.889 109.275C181.392 109.358 181.863 109.433 182.301 109.5C181.863 109.567 181.392 109.642 180.889 109.725C177.78 110.239 173.499 111.059 168.812 112.283C159.466 114.725 148.401 118.803 141.852 125.352C135.303 131.901 131.226 142.965 128.784 152.312C127.559 156.999 126.739 161.28 126.226 164.389C126.143 164.891 126.068 165.363 126 165.801Z" fill="black" fill-opacity="0.72" stroke="url(#paint2_linear_256_401)"/>
<defs>
<linearGradient id="paint0_linear_256_401" x1="126" y1="0.5" x2="126" y2="214.5" gradientUnits="userSpaceOnUse">
<stop stop-opacity="0.8"/>
<stop offset="1" stop-opacity="0.2"/>
</linearGradient>
<linearGradient id="paint1_linear_256_401" x1="124.5" y1="0.5" x2="124.5" y2="200.5" gradientUnits="userSpaceOnUse">
<stop stop-opacity="0.8"/>
<stop offset="1" stop-opacity="0.2"/>
</linearGradient>
<linearGradient id="paint2_linear_256_401" x1="126" y1="170" x2="126" y2="50" gradientUnits="userSpaceOnUse">
<stop stop-opacity="0.8"/>
<stop offset="1" stop-opacity="0.2"/>
</linearGradient>
</defs>
</svg>
