<svg width="267" height="261" viewBox="0 0 267 261" fill="none" xmlns="http://www.w3.org/2000/svg">
<path opacity="0.5" d="M49.2034 86.3804C49.2034 38.9349 87.6655 0.472656 135.111 0.472656V0.472656C182.556 0.472656 221.019 38.9348 221.019 86.3803V260.528H49.2034V86.3804Z" fill="black" fill-opacity="0.72"/>
<path opacity="0.5" fill-rule="evenodd" clip-rule="evenodd" d="M238.2 139.178V243.515H32.0216V179.651C24.3582 179.148 17.8619 178.187 12.7865 176.768C9.13891 175.748 6.19354 174.483 4.07115 172.955C1.94999 171.428 0.589805 169.592 0.251023 167.418C-0.0680865 165.37 0.555484 163.292 1.9093 161.227C3.26097 159.166 5.37379 157.064 8.14131 154.925C13.6186 150.693 21.7726 146.236 32.0216 141.632V117.133C32.0216 52.7032 78.1762 0.472656 135.111 0.472656C187.687 0.472656 231.071 45.0134 237.405 102.57C246.139 103.246 253.133 104.445 258.092 106.283C263.049 108.12 266.194 110.679 266.749 114.241C267.088 116.415 266.364 118.667 264.833 120.923C263.3 123.18 260.915 125.509 257.795 127.879C252.973 131.543 246.332 135.354 238.2 139.178ZM237.126 139.68V242.299H33.0955V179.718C36.1399 179.899 39.3617 180.009 42.7456 180.05C67.5983 180.347 101.303 176.869 137.975 169.551C174.647 162.234 207.371 152.457 230.635 142.558C232.888 141.6 235.054 140.639 237.126 139.68ZM237.534 103.798C246.144 104.475 252.964 105.661 257.758 107.438C262.683 109.263 265.251 111.626 265.691 114.452C265.958 116.161 265.415 118.071 263.981 120.182C262.548 122.292 260.269 124.536 257.197 126.87C252.533 130.414 246.103 134.122 238.2 137.862V117.133C238.2 112.624 237.974 108.174 237.534 103.798ZM32.0216 142.94C21.9836 147.469 14.0558 151.827 8.74681 155.929C6.02661 158.031 4.02255 160.044 2.77165 161.951C1.52289 163.856 1.05818 165.6 1.30855 167.207C1.57481 168.916 2.66225 170.5 4.64751 171.93C6.63156 173.358 9.45142 174.584 13.0441 175.588C18.025 176.981 24.4304 177.932 32.0216 178.434V142.94ZM33.0955 178.501V117.133C33.0955 53.3743 78.7693 1.68787 135.111 1.68787C191.452 1.68787 237.126 53.3743 237.126 117.133V138.366C234.942 139.383 232.651 140.402 230.257 141.421C207.072 151.286 174.416 161.046 137.789 168.355C101.162 175.663 67.5254 179.131 42.7569 178.835C39.363 178.794 36.1376 178.683 33.0955 178.501Z" fill="black" fill-opacity="0.72"/>
<path opacity="0.5" d="M135.111 60.0181C135.111 60.0181 138.666 97.5676 152.513 113.238C166.36 128.908 199.542 132.931 199.542 132.931C199.542 132.931 166.36 136.954 152.513 152.624C138.666 168.294 135.111 205.843 135.111 205.843C135.111 205.843 131.556 168.294 117.709 152.624C103.862 136.954 70.6802 132.931 70.6802 132.931C70.6802 132.931 103.862 128.908 117.709 113.238C131.556 97.5676 135.111 60.0181 135.111 60.0181Z" fill="black" fill-opacity="0.87"/>
</svg>
