<svg width="223" height="297" viewBox="0 0 223 297" fill="none" xmlns="http://www.w3.org/2000/svg">
<path opacity="0.5" fill-rule="evenodd" clip-rule="evenodd" d="M101.189 0.766846C45.6848 0.766846 0.689453 45.7622 0.689453 101.267V295.733V296.233H1.18945H11.7205H12.2205L22.7516 296.233H23.2516L33.7826 296.233H34.2826H44.8137H45.3137L55.8447 296.233L56.3447 296.233H61.8603H66.8758L67.3758 296.233L72.8913 296.233H73.5807H78.4068H78.9068L80.4752 296.233H83.9224L89.4379 296.233L89.9379 296.233V295.733V121.484C89.9379 109.576 99.5916 99.9223 111.5 99.9223C123.408 99.9223 133.062 109.576 133.062 121.484V295.733V296.233L133.562 296.233L139.078 296.233H143.214L144.093 296.233H144.593H149.419H150.109L155.624 296.233L156.124 296.233H161.14H166.655L167.155 296.233L177.686 296.233H178.186H188.717H189.217L199.748 296.233H200.248L210.78 296.233H211.28H221.811H222.311V295.733V101.267C222.311 45.7622 177.315 0.766846 121.811 0.766846H101.189ZM211.28 295.233H221.311V101.267C221.311 46.3145 176.763 1.76685 121.811 1.76685H101.189C46.2371 1.76685 1.68945 46.3145 1.68945 101.267V295.233H11.7205V112.816C11.7205 57.7091 56.3933 13.0363 111.5 13.0363C166.607 13.0363 211.28 57.7091 211.28 112.816V295.233ZM12.7205 295.233H22.7516V114.054C22.7516 65.0398 62.4856 25.3057 111.5 25.3057C160.514 25.3057 200.248 65.0398 200.248 114.054V295.233H210.28V112.816C210.28 58.2614 166.054 14.0363 111.5 14.0363C56.9456 14.0363 12.7205 58.2614 12.7205 112.816V295.233ZM199.248 295.233V114.054C199.248 65.592 159.962 26.3057 111.5 26.3057C63.0379 26.3057 23.7516 65.5921 23.7516 114.054V295.233H33.7826V115.292C33.7826 72.3703 68.5779 37.5751 111.5 37.5751C154.422 37.5751 189.217 72.3704 189.217 115.293V295.233H199.248ZM188.217 295.233V115.293C188.217 72.9227 153.87 38.5751 111.5 38.5751C69.1302 38.5751 34.7826 72.9226 34.7826 115.292V295.233H44.8137V116.531C44.8137 79.701 74.6702 49.8445 111.5 49.8445C148.33 49.8445 178.186 79.701 178.186 116.531V295.233H188.217ZM177.186 295.233V116.531C177.186 80.2533 147.778 50.8445 111.5 50.8445C75.2225 50.8445 45.8137 80.2533 45.8137 116.531V295.233H55.8447V117.769C55.8447 87.0317 80.7625 62.114 111.5 62.114C142.238 62.114 167.155 87.0317 167.155 117.769V295.233H177.186ZM166.155 117.769V295.233L161.14 295.233L156.124 295.233V119.008C156.124 94.3624 136.145 74.3834 111.5 74.3834C86.8547 74.3834 66.8758 94.3624 66.8758 119.008V295.233L61.8603 295.233L56.8447 295.233V117.769C56.8447 87.584 81.3147 63.114 111.5 63.114C141.685 63.114 166.155 87.584 166.155 117.769ZM155.124 119.008V295.233H150.109H149.419H145.093V120.246C145.093 101.693 130.053 86.6528 111.5 86.6528C92.947 86.6528 77.9068 101.693 77.9068 120.246V295.233H73.5807H72.8913H67.8758V119.008C67.8758 94.9147 87.407 75.3834 111.5 75.3834C135.593 75.3834 155.124 94.9147 155.124 119.008ZM144.093 120.246V295.233L143.214 295.233H139.078H134.062V121.484C134.062 109.024 123.961 98.9223 111.5 98.9223C99.0393 98.9223 88.9379 109.024 88.9379 121.484V295.233H83.9224H80.4752L78.9068 295.233V120.246C78.9068 102.245 93.4993 87.6528 111.5 87.6528C129.501 87.6528 144.093 102.245 144.093 120.246Z" fill="black" fill-opacity="0.72"/>
</svg>
